<svg width="18.109985" height="16.298996" viewBox="0 0 18.11 16.299" fill="none" xmlns="http://www.w3.org/2000/svg" xmlns:xlink="http://www.w3.org/1999/xlink">
	<desc>
			Created with Pixso.
	</desc>
	<defs>
		<clipPath id="clip60_590">
			<rect width="18.110001" height="16.299000" fill="white" fill-opacity="0"/>
		</clipPath>
	</defs>
	<rect width="18.110001" height="16.299000" fill="#FFFFFF" fill-opacity="0"/>
	<g clip-path="url(#clip60_590)">
		<path d="M12.9537 0C14.3511 0 15.5248 0.47123 16.4751 1.41369C17.4253 2.35615 17.9004 3.5065 17.9004 4.86475C17.9004 5.53002 17.7607 6.20222 17.4812 6.88134C17.2017 7.56046 16.8943 8.16336 16.5589 8.69003C16.2235 9.2167 15.6576 9.89582 14.8611 10.7274C14.0646 11.559 13.3939 12.2312 12.8489 12.744C12.3039 13.2568 11.4305 14.0399 10.2288 15.0932L8.92926 16.2574L7.6297 15.1348C6.45587 14.0537 5.58948 13.2568 5.03058 12.744C4.47162 12.2312 3.79388 11.559 2.99738 10.7274C2.20087 9.89582 1.63495 9.2167 1.29956 8.69003C0.964172 8.16336 0.663757 7.56046 0.398254 6.88134C0.132751 6.20222 0 5.53002 0 4.86475C0 3.5065 0.475098 2.35615 1.42535 1.41369C2.37555 0.47123 3.53534 0 4.90479 0C6.52576 0 7.86725 0.623688 8.92926 1.87106C9.99121 0.623688 11.3327 0 12.9537 0ZM9.01306 13.8043C10.3825 12.5846 11.3817 11.6768 12.0104 11.0808C12.6393 10.4849 13.331 9.77109 14.0856 8.93951C14.8401 8.10793 15.3641 7.38029 15.6576 6.7566C15.951 6.13292 16.0978 5.5023 16.0978 4.86475C16.0978 3.97773 15.7974 3.24317 15.1965 2.66106C14.5956 2.07896 13.848 1.7879 12.9537 1.7879C12.283 1.7879 11.6472 1.98193 11.0463 2.37001C10.4454 2.75808 10.0192 3.25703 9.76764 3.86685L8.09082 3.86685C7.86725 3.25703 7.45502 2.75808 6.85413 2.37001C6.25323 1.98193 5.60345 1.7879 4.90479 1.7879C4.0105 1.7879 3.26984 2.07896 2.68298 2.66106C2.09607 3.24317 1.80261 3.97773 1.80261 4.86475C1.80261 5.5023 1.94238 6.13292 2.2218 6.7566C2.50128 7.38029 3.02533 8.10793 3.79388 8.93951C4.56244 9.77109 5.26111 10.4849 5.88995 11.0808C6.51874 11.6768 7.50391 12.5846 8.8454 13.8043L8.92926 13.8874L9.01306 13.8043Z" fill="#9B9B9B" fill-opacity="1.000000" fill-rule="nonzero"/>
	</g>
</svg>
